<?xml version="1.0" encoding="iso-8859-1"?>
<!-- Generator: Adobe Illustrator 19.0.0, SVG Export Plug-In . SVG Version: 6.00 Build 0)  -->
<svg version="1.1" id="Capa_1" xmlns="http://www.w3.org/2000/svg" xmlns:xlink="http://www.w3.org/1999/xlink" x="0px" y="0px"
	 viewBox="0 0 512 512" style="enable-background:new 0 0 512 512;" xml:space="preserve">
<g>
	<g>
		<path d="M492.363,151.672c-21.924,7.128-45.546,9.047-69.066,5.371c-9.567-1.495-19.473-2.253-29.441-2.253
			c-5.688,0-11.54,0.594-17.393,1.766c-14.272,2.856-28.24,9.406-40.393,18.941l-73.904,57.981c-3.621,2.841-8.711,2.841-12.333,0
			l-73.904-57.981c-12.153-9.535-26.121-16.085-40.393-18.941c-5.853-1.172-11.704-1.766-17.393-1.766
			c-9.968,0-19.874,0.758-29.441,2.253c-23.517,3.676-47.142,1.756-69.066-5.372C9.945,148.521,0,155.715,0,165.906v113.599
			c0,29.692,33.133,57.186,80.572,66.859c19.384,3.956,39.701,2.199,58.754-5.076c4.586-1.751,9.333-3.219,14.11-4.364
			c26.668-6.389,54.997-0.561,77.723,15.996c0.026,0.02,0.054,0.039,0.072,0.053c14.814,10.805,34.723,10.805,49.537,0
			c23.371-17.045,52.575-22.68,80.125-15.464c3.971,1.04,7.935,2.312,11.781,3.78c19.053,7.273,39.371,9.03,58.753,5.075
			C478.867,336.69,512,309.197,512,279.505V165.906C512,155.715,502.054,148.521,492.363,151.672z M186.993,269.308
			c-10.771,6.896-28.748,15.915-49.107,15.915c-20.358,0-38.335-9.019-49.107-15.915c-5.646-3.615-5.646-11.835,0-15.45
			c10.771-6.896,28.748-15.915,49.107-15.915c20.358,0,38.336,9.019,49.107,15.915C192.639,257.473,192.639,265.693,186.993,269.308
			z M423.22,269.308c-10.771,6.896-28.748,15.915-49.106,15.915c-20.358,0-38.336-9.019-49.107-15.915
			c-5.646-3.615-5.646-11.835,0-15.45c10.771-6.896,28.748-15.915,49.107-15.915s38.335,9.019,49.106,15.915
			C428.866,257.473,428.866,265.693,423.22,269.308z"/>
	</g>
</g>
<g>
</g>
<g>
</g>
<g>
</g>
<g>
</g>
<g>
</g>
<g>
</g>
<g>
</g>
<g>
</g>
<g>
</g>
<g>
</g>
<g>
</g>
<g>
</g>
<g>
</g>
<g>
</g>
<g>
</g>
</svg>
