<?xml version="1.0" encoding="utf-8"?>
<!-- Generator: Adobe Illustrator 16.0.0, SVG Export Plug-In . SVG Version: 6.00 Build 0)  -->
<!DOCTYPE svg PUBLIC "-//W3C//DTD SVG 1.1//EN" "http://www.w3.org/Graphics/SVG/1.1/DTD/svg11.dtd">
<svg version="1.1" id="レイヤー_1" xmlns="http://www.w3.org/2000/svg" xmlns:xlink="http://www.w3.org/1999/xlink" x="0px"
	 y="0px" width="193.123px" height="56.598px" viewBox="0 0 193.123 56.598" enable-background="new 0 0 193.123 56.598"
	 xml:space="preserve">
<path fill="#FFFFFF" d="M191.568,5.624c-1.037-0.958-2.514-1.436-4.428-1.436c-1.836,0-3.512,0.161-5.025,0.479
	c-0.4-1.753-0.896-2.971-1.496-3.649C180.021,0.34,178.844,0,177.09,0c-5.504,0-10.709,1.735-15.615,5.205
	c-4.906,3.47-8.836,8.058-11.786,13.761c-2.833,5.474-4.29,11.262-4.404,17.359c-1.591,1.736-2.979,3.137-4.149,4.18
	c-2.195,1.956-4.089,2.932-5.684,2.932c-2.314,0-3.471-1.595-3.471-4.786c0-2.232,0.758-6.82,2.273-13.761
	c1.754-8.137,2.633-13.761,2.633-16.872c0-5.185-2.594-7.778-7.777-7.778c-4.229,0-8.776,2.234-13.641,6.701
	c-4.867,4.468-9.294,11.606-13.282,21.418c0.239-1.436,0.677-3.59,1.316-6.461c1.514-6.701,2.273-11.326,2.273-13.88
	c0-2.632-0.58-4.586-1.735-5.863c-1.157-1.275-3.131-1.915-5.923-1.915c-2.793,0-5.764,1.059-8.915,3.171
	c-3.152,2.115-6.222,5.325-9.214,9.633c-2.991,4.308-5.564,9.572-7.718,15.794c0.318-3.509,0.718-6.441,1.197-8.794
	c0.479-2.352,1.116-5.125,1.915-8.316c1.196-4.467,1.794-7.338,1.794-8.615c0-1.116-0.319-1.874-0.957-2.273
	c-0.64-0.398-1.755-0.599-3.351-0.599c-2.952,0-5.246,0.539-6.88,1.616c-1.636,1.077-2.812,2.772-3.53,5.085
	c-2.743,8.673-4.194,17.801-4.388,27.369c-2.365,2.704-4.335,4.775-5.9,6.195c-2.154,1.956-3.99,2.932-5.504,2.932
	c-0.957,0-1.735-0.358-2.333-1.077c-0.599-0.718-0.897-1.676-0.897-2.871c0-3.59,0.916-9.972,2.752-19.146
	c1.197-6.301,1.795-10.291,1.795-11.966c0-2.791-1.956-4.188-5.863-4.188c-1.836,0-3.59,0.161-5.265,0.479
	c-0.4-1.753-0.897-2.971-1.496-3.649C34.761,0.34,33.583,0,31.829,0C26.325,0,21.12,1.735,16.214,5.205
	c-4.906,3.47-8.836,8.058-11.787,13.761C1.475,24.67,0,30.712,0,37.094c0,5.823,1.475,10.53,4.427,14.12
	c2.951,3.589,6.899,5.384,11.846,5.384c6.301,0,11.526-3.351,15.675-10.052c1.116,3.111,2.771,5.564,4.966,7.359
	c2.193,1.795,4.607,2.692,7.239,2.692c3.429,0,6.979-1.395,10.649-4.188c1.439-1.096,2.848-2.293,4.226-3.585
	c0.243,1.13,0.526,2.133,0.857,2.987c1.236,3.191,3.369,4.786,6.402,4.786c2.472,0,4.287-0.658,5.444-1.974
	c1.156-1.316,2.173-3.848,3.051-7.599c1.036-4.308,2.412-8.694,4.128-13.163c1.714-4.466,3.489-8.136,5.325-11.008
	c1.834-2.872,3.351-4.308,4.547-4.308c0.877,0,1.316,0.64,1.316,1.915c0,1.597-0.32,4.947-0.958,10.052
	c-0.798,5.743-1.196,10.131-1.196,13.162c0,3.59,0.658,6.641,1.974,9.154c1.316,2.512,3.291,3.769,5.923,3.769
	c2.552,0,4.407-0.638,5.564-1.915c1.155-1.274,2.172-3.828,3.051-7.657c1.197-4.865,2.752-9.493,4.667-13.88
	s3.829-7.917,5.744-10.59c1.915-2.672,3.39-4.009,4.427-4.009c0.877,0,1.316,0.64,1.316,1.915c0,1.915-0.52,5.385-1.556,10.411
	c-1.118,5.742-1.675,9.732-1.675,11.965c0,4.469,1.036,7.879,3.111,10.23c2.073,2.354,5.145,3.53,9.213,3.53
	c5.025,0,9.514-1.355,13.462-4.068c1.628-1.118,3.21-2.373,4.751-3.749c0.472,0.857,0.992,1.676,1.59,2.434
	c2.83,3.589,6.521,5.384,11.068,5.384c6.061,0,10.329-3.429,12.803-10.29l-0.119,1.914c0,2.952,0.658,5.086,1.974,6.402
	c1.316,1.315,3.329,1.974,6.042,1.974c2.791,0,4.805-0.658,6.043-1.974c1.236-1.316,1.855-3.489,1.855-6.521
	c0-5.505,0.238-10.471,0.717-14.898c0.479-4.427,1.156-9.073,2.035-13.939c0.797-4.547,1.195-7.737,1.195-9.573
	C193.123,7.938,192.604,6.581,191.568,5.624z M29.077,33.146c-0.718,3.43-1.875,6.182-3.47,8.256
	c-1.597,2.075-3.272,3.111-5.026,3.111c-1.755,0-3.131-0.599-4.128-1.795c-0.999-1.197-1.496-3.031-1.496-5.504
	c0-4.467,0.837-8.694,2.513-12.685c1.675-3.988,3.928-7.198,6.761-9.632c2.831-2.433,5.923-3.689,9.273-3.769L29.077,33.146z
	 M176.252,23.214c-1.436,7.977-3.071,13.521-4.905,16.632c-1.836,3.111-3.87,4.667-6.103,4.667c-1.516,0-2.733-0.617-3.649-1.855
	c-0.918-1.235-1.376-3.051-1.376-5.443c0-4.467,0.838-8.694,2.513-12.685c1.675-3.988,3.907-7.198,6.7-9.632
	c2.792-2.433,5.822-3.689,9.094-3.769L176.252,23.214z"/>
</svg>
