<?xml version="1.0" encoding="utf-8"?>
<!-- Generator: Adobe Illustrator 16.0.0, SVG Export Plug-In . SVG Version: 6.00 Build 0)  -->
<!DOCTYPE svg PUBLIC "-//W3C//DTD SVG 1.1//EN" "http://www.w3.org/Graphics/SVG/1.1/DTD/svg11.dtd">
<svg version="1.1" id="レイヤー_1" xmlns="http://www.w3.org/2000/svg" xmlns:xlink="http://www.w3.org/1999/xlink" x="0px"
	 y="0px" width="400px" height="63.474px" viewBox="0 0 400 63.474" enable-background="new 0 0 400 63.474" xml:space="preserve">
<g>
	<g>
		<path fill="#FFFFFF" d="M229.783,39.553c-0.527,0.157-0.992,0.426-1.396,0.807c-0.426,0.382-0.763,0.858-1.01,1.431
			c-0.246,0.571-0.369,1.272-0.369,2.103v2.321h-1.683v2.691h1.683v14.366h3.431V48.905h2.558v-2.691h-2.558v-2.49
			c0-0.784,0.337-1.177,1.01-1.177h1.548v-3.229h-1.581C230.854,39.317,230.31,39.396,229.783,39.553z"/>
		<path fill="#FFFFFF" d="M243.324,48.468c-0.403-0.739-0.98-1.334-1.732-1.783c-0.752-0.448-1.666-0.673-2.742-0.673
			c-1.077,0-1.991,0.225-2.742,0.673c-0.752,0.449-1.329,1.044-1.732,1.783c-0.247,0.449-0.415,0.965-0.505,1.548
			s-0.135,1.223-0.135,1.918v5.618c0,0.695,0.045,1.335,0.135,1.917c0.09,0.584,0.258,1.101,0.505,1.549
			c0.403,0.739,0.98,1.334,1.732,1.783c0.751,0.448,1.665,0.673,2.742,0.673c1.076,0,1.99-0.225,2.742-0.673
			c0.752-0.449,1.329-1.044,1.732-1.783c0.247-0.448,0.414-0.965,0.505-1.549c0.089-0.582,0.135-1.222,0.135-1.917v-5.618
			c0-0.695-0.046-1.335-0.135-1.918C243.738,49.433,243.571,48.917,243.324,48.468z M240.532,58.09c0,0.651-0.151,1.139-0.455,1.464
			c-0.302,0.325-0.712,0.487-1.228,0.487s-0.925-0.162-1.228-0.487c-0.304-0.325-0.455-0.812-0.455-1.464v-6.695
			c0-0.65,0.151-1.138,0.455-1.463c0.303-0.325,0.712-0.488,1.228-0.488s0.926,0.163,1.228,0.488
			c0.304,0.325,0.455,0.812,0.455,1.463V58.09z"/>
		<path fill="#FFFFFF" d="M249.919,48.03v-1.816h-3.433v17.058h3.433V53.145c0-0.695,0.111-1.278,0.336-1.75
			c0.225-0.471,0.517-0.852,0.875-1.144c0.337-0.291,0.712-0.499,1.126-0.622c0.416-0.124,0.802-0.186,1.161-0.186
			s0.707,0.067,1.044,0.202v-3.634c-0.987,0-1.817,0.18-2.489,0.538C251.298,46.909,250.613,47.402,249.919,48.03z"/>
		<path fill="#FFFFFF" d="M273.216,49.948c0.438-0.986,0.657-2.187,0.657-3.6c0-4.688-2.02-7.031-6.057-7.031h-5.518v23.954h3.433
			V53.043h2.052l3.196,10.229h3.634l-3.702-10.935C272.011,51.731,272.779,50.936,273.216,49.948z M270.34,47.879
			c-0.068,0.46-0.19,0.847-0.37,1.161c-0.202,0.314-0.481,0.556-0.842,0.723c-0.358,0.169-0.841,0.253-1.445,0.253h-1.951v-7.469
			h1.783c1.188,0,1.995,0.313,2.422,0.941c0.202,0.337,0.335,0.735,0.403,1.194c0.067,0.46,0.101,0.993,0.101,1.599
			S270.407,47.42,270.34,47.879z"/>
		<path fill="#FFFFFF" d="M284.874,47.357c-0.472-0.448-1.021-0.784-1.648-1.009c-0.629-0.225-1.301-0.337-2.02-0.337
			c-0.784,0-1.491,0.129-2.119,0.387s-1.166,0.611-1.615,1.06c-0.942,0.943-1.458,2.177-1.547,3.701h3.33
			c0.112-0.561,0.354-0.986,0.724-1.278c0.37-0.291,0.778-0.438,1.228-0.438c0.65,0,1.1,0.191,1.348,0.572
			c0.245,0.382,0.368,0.863,0.368,1.447v1.782c-0.179-0.021-0.347-0.033-0.505-0.033c-0.156,0-0.291-0.012-0.402-0.033
			c-0.113-0.022-0.237-0.034-0.37-0.034c-0.135,0-0.259,0-0.37,0c-1.077,0-1.963,0.117-2.658,0.354
			c-0.695,0.235-1.245,0.589-1.648,1.06c-0.428,0.493-0.719,1.104-0.875,1.834c-0.157,0.729-0.235,1.576-0.235,2.539
			c0,0.942,0.118,1.711,0.353,2.305c0.236,0.596,0.544,1.049,0.927,1.363c0.381,0.336,0.777,0.566,1.193,0.689
			c0.414,0.123,0.823,0.186,1.228,0.186c0.829,0,1.476-0.169,1.936-0.505c0.459-0.337,0.913-0.819,1.362-1.447h0.066v1.75h3.432
			V51.395c0-0.896-0.134-1.682-0.403-2.354C285.681,48.366,285.322,47.807,284.874,47.357z M282.922,58.258
			c0,0.696-0.163,1.234-0.487,1.615c-0.326,0.382-0.779,0.572-1.362,0.572c-0.561,0-0.999-0.202-1.312-0.606
			c-0.315-0.403-0.471-0.93-0.471-1.581c0-0.919,0.263-1.553,0.79-1.9c0.525-0.348,1.16-0.521,1.9-0.521
			c0.246,0,0.56,0.033,0.941,0.101V58.258z"/>
		<rect x="288.877" y="46.214" fill="#FFFFFF" width="3.433" height="17.058"/>
		<rect x="288.877" y="39.317" fill="#FFFFFF" width="3.433" height="3.432"/>
		<path fill="#FFFFFF" d="M298.364,58.46V39.317h-3.431v19.378c0,1.01,0.117,1.822,0.353,2.439s0.577,1.093,1.025,1.431
			c0.448,0.357,0.987,0.6,1.615,0.723c0.627,0.123,1.335,0.186,2.119,0.186v-3.23c-0.651-0.066-1.094-0.219-1.328-0.454
			C298.481,59.554,298.364,59.111,298.364,58.46z"/>
		<path fill="#FFFFFF" d="M307.649,53.514l-2.019-0.807c-0.65-0.246-1.055-0.521-1.212-0.824c-0.157-0.303-0.235-0.611-0.235-0.926
			c0-0.448,0.146-0.846,0.438-1.194c0.291-0.347,0.707-0.521,1.245-0.521c0.448,0,0.847,0.146,1.195,0.438
			c0.347,0.292,0.532,0.729,0.554,1.312h3.23c0-0.695-0.124-1.352-0.37-1.969c-0.247-0.616-0.584-1.148-1.009-1.598
			c-0.427-0.448-0.938-0.796-1.532-1.043c-0.593-0.246-1.239-0.37-1.934-0.37c-0.695,0-1.347,0.118-1.951,0.354
			c-0.606,0.235-1.133,0.577-1.582,1.025c-0.471,0.449-0.841,0.982-1.11,1.599c-0.269,0.617-0.403,1.284-0.403,2.002
			c0,1.144,0.308,2.114,0.925,2.91s1.464,1.396,2.54,1.8l1.65,0.605c0.649,0.247,1.097,0.538,1.345,0.875
			c0.246,0.337,0.37,0.74,0.37,1.211c0,0.584-0.197,1.038-0.589,1.363c-0.393,0.325-0.836,0.487-1.329,0.487
			c-0.65,0-1.105-0.202-1.362-0.605c-0.259-0.404-0.421-0.842-0.487-1.312h-3.23c0.021,0.853,0.179,1.599,0.471,2.237
			c0.291,0.64,0.674,1.173,1.145,1.599c0.941,0.875,2.108,1.312,3.499,1.312c0.74,0,1.424-0.135,2.053-0.404
			c0.627-0.269,1.165-0.64,1.614-1.11c0.448-0.471,0.801-1.015,1.06-1.632c0.258-0.616,0.387-1.283,0.387-2.002
			c0-1.009-0.241-1.939-0.724-2.792S308.927,54.008,307.649,53.514z"/>
		<path fill="#FFFFFF" d="M320.062,47.762h-0.066c-0.382-0.561-0.835-0.992-1.362-1.296c-0.526-0.303-1.127-0.454-1.8-0.454
			c-0.854,0-1.492,0.146-1.918,0.438c-0.921,0.561-1.446,1.401-1.582,2.523c-0.066,0.584-0.101,1.491-0.101,2.726v6.493
			c0,0.941,0.045,1.693,0.135,2.254c0.089,0.561,0.235,1.032,0.437,1.413c0.562,1.076,1.561,1.615,2.994,1.615
			c0.428,0,0.798-0.046,1.111-0.135c0.314-0.09,0.594-0.214,0.841-0.37c0.247-0.157,0.471-0.343,0.672-0.556
			c0.203-0.213,0.417-0.442,0.64-0.689v1.548h3.433V39.317h-3.433V47.762z M320.062,57.922c0,0.628-0.156,1.139-0.471,1.531
			c-0.312,0.393-0.729,0.588-1.244,0.588c-0.583,0-1.009-0.213-1.279-0.64c-0.27-0.425-0.402-0.986-0.402-1.682v-6.257
			c0-0.539,0.117-1.011,0.353-1.414c0.236-0.403,0.679-0.605,1.329-0.605c0.493,0,0.902,0.175,1.228,0.521
			c0.326,0.349,0.487,0.79,0.487,1.329V57.922z"/>
		<path fill="#FFFFFF" d="M342.201,46.954c-0.359-0.337-0.763-0.577-1.212-0.724c-0.448-0.146-0.886-0.219-1.312-0.219
			c-0.92,0-1.637,0.168-2.153,0.505c-0.517,0.336-0.987,0.74-1.412,1.212c-0.315-0.427-0.719-0.819-1.212-1.179
			c-0.494-0.358-1.11-0.538-1.851-0.538c-0.785,0-1.431,0.174-1.935,0.522c-0.505,0.347-0.937,0.79-1.295,1.328h-0.067v-1.648
			h-3.432v17.058h3.432V51.799c0-0.763,0.123-1.347,0.37-1.75c0.246-0.403,0.695-0.605,1.346-0.605c0.538,0,0.952,0.18,1.244,0.538
			c0.292,0.359,0.438,0.853,0.438,1.481v11.809h3.433V51.799c0-0.763,0.123-1.347,0.37-1.75c0.246-0.403,0.694-0.605,1.345-0.605
			c0.538,0,0.954,0.18,1.245,0.538c0.291,0.359,0.438,0.853,0.438,1.481v11.809h3.432V50.184c0-0.763-0.111-1.407-0.336-1.935
			C342.852,47.723,342.56,47.29,342.201,46.954z"/>
		<path fill="#FFFFFF" d="M361.95,48.804c0.156-0.357,0.27-0.718,0.336-1.075c0.066-0.359,0.113-0.734,0.135-1.128
			c0.021-0.393,0.033-0.881,0.033-1.463c0-0.809-0.094-1.57-0.285-2.288s-0.488-1.357-0.891-1.918
			c-0.428-0.561-0.961-1.004-1.6-1.329c-0.639-0.324-1.408-0.488-2.305-0.488c-0.719,0-1.391,0.141-2.018,0.421
			c-0.629,0.281-1.168,0.656-1.615,1.127c-0.473,0.471-0.842,1.021-1.111,1.649c-0.268,0.628-0.402,1.301-0.402,2.018v1.885h3.432
			v-1.951c0-0.561,0.15-0.987,0.453-1.278c0.303-0.292,0.713-0.438,1.229-0.438c0.426,0,0.752,0.084,0.975,0.252
			c0.225,0.168,0.393,0.376,0.506,0.622c0.113,0.248,0.174,0.533,0.186,0.858c0.01,0.325,0.016,0.634,0.016,0.925
			c0,0.651-0.021,1.194-0.066,1.632c-0.047,0.438-0.225,0.948-0.539,1.53l-6.189,11.675v3.23h10.227v-3.433h-6.189l5.045-9.723
			C361.579,49.601,361.792,49.163,361.95,48.804z"/>
		<path fill="#FFFFFF" d="M373.42,40.494c-0.471-0.448-1.014-0.791-1.631-1.026s-1.26-0.354-1.934-0.354s-1.318,0.118-1.936,0.354
			s-1.16,0.578-1.631,1.026c-0.473,0.449-0.848,0.987-1.127,1.615c-0.281,0.628-0.42,1.346-0.42,2.153v14.062
			c0,0.808,0.139,1.525,0.42,2.153c0.279,0.629,0.654,1.167,1.127,1.615c0.471,0.449,1.014,0.79,1.631,1.026
			c0.617,0.235,1.262,0.354,1.936,0.354s1.316-0.118,1.934-0.354c0.617-0.236,1.16-0.577,1.631-1.026
			c0.473-0.448,0.848-0.986,1.127-1.615c0.281-0.628,0.422-1.346,0.422-2.153V44.263c0-0.808-0.141-1.525-0.422-2.153
			C374.268,41.481,373.893,40.943,373.42,40.494z M371.538,58.325c0,0.494-0.156,0.903-0.471,1.229s-0.719,0.487-1.211,0.487
			c-0.494,0-0.896-0.162-1.213-0.487c-0.312-0.325-0.471-0.734-0.471-1.229V44.263c0-0.493,0.158-0.903,0.471-1.228
			c0.316-0.325,0.719-0.488,1.213-0.488c0.492,0,0.896,0.163,1.211,0.488c0.314,0.324,0.471,0.734,0.471,1.228V58.325z"/>
		<polygon fill="#FFFFFF" points="377.895,41.841 377.895,45.474 381.327,42.95 381.327,63.271 384.76,63.271 384.76,39.317 
			381.327,39.317 		"/>
		<path fill="#FFFFFF" d="M399.764,52.74c-0.113-0.425-0.285-0.795-0.521-1.11c-0.236-0.313-0.555-0.627-0.961-0.941
			c0.406-0.336,0.725-0.656,0.961-0.959s0.408-0.645,0.521-1.026c0.111-0.382,0.178-0.818,0.201-1.312
			c0.023-0.492,0.035-1.098,0.035-1.815c0-0.65-0.018-1.206-0.051-1.666c-0.035-0.46-0.107-0.857-0.219-1.194
			s-0.248-0.639-0.404-0.909c-0.156-0.269-0.348-0.549-0.574-0.84c-0.445-0.583-1.006-1.038-1.682-1.363
			c-0.672-0.324-1.4-0.488-2.186-0.488s-1.514,0.164-2.186,0.488c-0.676,0.325-1.236,0.78-1.684,1.363
			c-0.225,0.291-0.408,0.571-0.555,0.84c-0.146,0.271-0.275,0.572-0.387,0.909c-0.113,0.337-0.193,0.734-0.236,1.194
			c-0.045,0.46-0.068,1.016-0.068,1.666c0,0.718,0.012,1.323,0.035,1.815c0.023,0.494,0.09,0.931,0.203,1.312
			c0.111,0.382,0.283,0.724,0.52,1.026c0.234,0.303,0.555,0.623,0.959,0.959c-0.404,0.314-0.725,0.628-0.959,0.941
			c-0.236,0.315-0.408,0.686-0.52,1.11c-0.113,0.427-0.18,0.948-0.203,1.564c-0.023,0.617-0.035,1.375-0.035,2.271
			c0,0.741,0.018,1.353,0.051,1.834c0.035,0.482,0.086,0.903,0.154,1.262c0.064,0.359,0.162,0.662,0.283,0.909
			c0.123,0.247,0.275,0.504,0.455,0.773c0.381,0.584,0.92,1.083,1.615,1.497c0.695,0.415,1.547,0.623,2.557,0.623
			s1.861-0.208,2.557-0.623c0.695-0.414,1.232-0.913,1.615-1.497c0.18-0.27,0.332-0.526,0.455-0.773
			c0.121-0.247,0.219-0.55,0.287-0.909c0.064-0.358,0.115-0.779,0.15-1.262c0.033-0.481,0.051-1.093,0.051-1.834
			c0-0.896-0.012-1.653-0.035-2.271C399.942,53.688,399.875,53.167,399.764,52.74z M396.567,58.359c0,0.471-0.168,0.869-0.504,1.194
			s-0.729,0.487-1.178,0.487s-0.842-0.162-1.178-0.487s-0.504-0.724-0.504-1.194v-4.71c0-0.471,0.168-0.87,0.504-1.194
			c0.336-0.325,0.729-0.488,1.178-0.488s0.842,0.163,1.178,0.488c0.336,0.324,0.504,0.724,0.504,1.194V58.359z M396.567,47.729
			c0,0.471-0.168,0.869-0.504,1.194c-0.336,0.324-0.729,0.487-1.178,0.487s-0.842-0.163-1.178-0.487
			c-0.336-0.325-0.504-0.724-0.504-1.194v-3.499c0-0.472,0.168-0.87,0.504-1.194c0.336-0.325,0.729-0.488,1.178-0.488
			s0.842,0.163,1.178,0.488c0.336,0.324,0.504,0.723,0.504,1.194V47.729z"/>
	</g>
	<path fill="#FFFFFF" d="M214.838,6.308c-1.163-1.073-2.819-1.61-4.966-1.61c-2.059,0-3.938,0.181-5.636,0.537
		c-0.449-1.967-1.006-3.332-1.678-4.093C201.889,0.382,200.567,0,198.601,0c-6.173,0-12.011,1.947-17.512,5.838
		c-5.502,3.892-9.909,9.036-13.219,15.432c-3.177,6.139-4.812,12.631-4.939,19.468c-1.785,1.947-3.341,3.518-4.653,4.688
		c-2.462,2.193-4.585,3.287-6.374,3.287c-2.596,0-3.892-1.788-3.892-5.368c0-2.503,0.85-7.648,2.55-15.432
		c1.967-9.125,2.952-15.432,2.952-18.921c0-5.813-2.908-8.723-8.723-8.723c-4.743,0-9.842,2.506-15.298,7.516
		c-5.458,5.011-10.423,13.016-14.895,24.02c0.268-1.61,0.759-4.025,1.476-7.246c1.698-7.515,2.55-12.702,2.55-15.566
		c0-2.952-0.65-5.144-1.946-6.575c-1.298-1.43-3.512-2.147-6.642-2.147c-3.133,0-6.465,1.188-9.998,3.557
		c-3.535,2.371-6.979,5.972-10.333,10.803c-3.354,4.83-6.239,10.734-8.655,17.713c0.356-3.936,0.805-7.224,1.343-9.863
		c0.536-2.638,1.251-5.747,2.146-9.326c1.342-5.009,2.013-8.229,2.013-9.662c0-1.251-0.358-2.101-1.073-2.549
		c-0.718-0.447-1.969-0.672-3.758-0.672c-3.311,0-5.884,0.604-7.716,1.812c-1.835,1.207-3.153,3.108-3.959,5.703
		c-3.076,9.726-4.703,19.962-4.921,30.692c-2.653,3.033-4.862,5.355-6.617,6.948c-2.415,2.193-4.475,3.287-6.173,3.287
		c-1.073,0-1.946-0.402-2.616-1.208c-0.672-0.804-1.007-1.879-1.007-3.22c0-4.026,1.027-11.183,3.086-21.471
		c1.343-7.066,2.014-11.541,2.014-13.42c0-3.13-2.193-4.696-6.576-4.696c-2.059,0-4.025,0.181-5.904,0.537
		c-0.448-1.967-1.007-3.332-1.678-4.093C38.983,0.382,37.662,0,35.695,0c-6.173,0-12.011,1.947-17.512,5.838
		C12.681,9.729,8.274,14.874,4.965,21.27C1.654,27.667,0,34.443,0,41.601c0,6.53,1.654,11.809,4.965,15.835
		c3.31,4.024,7.737,6.038,13.285,6.038c7.066,0,12.927-3.757,17.579-11.272c1.252,3.489,3.107,6.24,5.569,8.253
		c2.459,2.013,5.167,3.02,8.118,3.02c3.846,0,7.827-1.564,11.943-4.697c1.614-1.229,3.193-2.571,4.739-4.021
		c0.272,1.267,0.59,2.392,0.962,3.35c1.386,3.579,3.778,5.368,7.18,5.368c2.771,0,4.808-0.738,6.105-2.215
		c1.296-1.476,2.437-4.314,3.422-8.521c1.162-4.832,2.705-9.751,4.629-14.762c1.924-5.009,3.913-9.125,5.972-12.346
		c2.057-3.22,3.758-4.831,5.1-4.831c0.983,0,1.477,0.718,1.477,2.147c0,1.791-0.359,5.548-1.074,11.272
		c-0.895,6.44-1.342,11.362-1.342,14.762c0,4.025,0.738,7.447,2.214,10.265c1.477,2.818,3.69,4.228,6.643,4.228
		c2.862,0,4.942-0.715,6.24-2.147c1.296-1.43,2.437-4.294,3.422-8.588c1.343-5.456,3.086-10.646,5.233-15.566
		c2.147-4.919,4.294-8.878,6.441-11.876c2.147-2.997,3.801-4.496,4.965-4.496c0.983,0,1.477,0.718,1.477,2.147
		c0,2.147-0.583,6.039-1.745,11.675c-1.253,6.44-1.879,10.916-1.879,13.419c0,5.012,1.162,8.836,3.489,11.474
		c2.326,2.64,5.771,3.959,10.333,3.959c5.637,0,10.669-1.521,15.098-4.562c1.825-1.254,3.6-2.661,5.327-4.205
		c0.528,0.961,1.112,1.879,1.782,2.729c3.175,4.024,7.313,6.038,12.413,6.038c6.797,0,11.585-3.846,14.358-11.541l-0.135,2.147
		c0,3.311,0.739,5.703,2.215,7.179c1.476,1.477,3.733,2.215,6.776,2.215c3.13,0,5.388-0.738,6.777-2.215
		c1.386-1.476,2.08-3.912,2.08-7.312c0-6.174,0.268-11.742,0.804-16.707c0.537-4.965,1.297-10.176,2.283-15.634
		c0.893-5.1,1.34-8.677,1.34-10.735C216.581,8.903,215.999,7.381,214.838,6.308z M32.609,37.172
		c-0.806,3.848-2.104,6.934-3.893,9.259c-1.79,2.327-3.669,3.489-5.636,3.489c-1.969,0-3.512-0.671-4.63-2.014
		c-1.119-1.341-1.677-3.397-1.677-6.172c0-5.01,0.939-9.75,2.817-14.225c1.879-4.472,4.405-8.073,7.583-10.803
		c3.174-2.728,6.642-4.137,10.399-4.227L32.609,37.172z M197.661,26.034c-1.61,8.946-3.445,15.163-5.502,18.652
		c-2.059,3.489-4.34,5.233-6.844,5.233c-1.7,0-3.065-0.691-4.093-2.08c-1.029-1.386-1.543-3.422-1.543-6.105
		c0-5.01,0.939-9.75,2.817-14.225c1.879-4.472,4.382-8.073,7.515-10.803c3.131-2.728,6.529-4.137,10.198-4.227L197.661,26.034z"/>
</g>
</svg>
